<svg width="268" height="245" viewBox="0 0 268 245" fill="none" xmlns="http://www.w3.org/2000/svg">
<path d="M135.371 12.9357C120.332 7.97238 107.342 -1.97275 92.1337 1.67277C76.9254 5.31829 63.7474 14.7646 51.9919 25.1593C39.0646 36.5823 26.9268 50.0806 22.2271 66.781C15.754 89.6209 24.0192 115.084 15.9608 137.419C12.0506 148.282 4.44963 157.79 2.46948 169.176C-0.0370284 183.696 7.08773 198.118 15.6287 210.102C19.4386 215.447 23.6996 220.669 29.2892 224.049C38.9079 229.856 51.0081 229.37 61.949 226.956C72.8899 224.542 83.4987 220.385 94.6527 219.394C127.663 216.444 157.284 241.199 190.32 243.872C213.436 245.719 237.185 235.867 252.356 218.107C261.129 207.799 267.207 194.399 266.142 180.821C264.262 157.014 242.18 140.498 221.094 129.777C207.145 122.677 191.279 115.158 186.065 100.274C182.851 91.0681 184.524 80.9567 184.235 71.2024C183.27 38.559 156.156 19.7895 135.371 12.9357Z" fill="#EBEBEB"/>
<path d="M58.4458 119.118C51.9164 113.575 45.1049 107.676 42.2287 99.5723C39.0956 90.8218 41.1572 81.1538 43.225 72.0954C45.2678 63.1458 47.3086 54.1962 49.3472 45.2466C50.6631 39.4889 51.9728 33.7312 53.6458 28.072C55.2922 22.4978 57.2887 17.0293 59.6239 11.698C66.1972 18.4718 71.323 26.0153 75.9162 34.8951C89.7019 33.8081 103.562 35.7214 116.509 40.4988C118.069 40.0062 119.26 38.7623 120.419 37.5984C125.454 32.5065 131.258 28.2089 137.627 24.8576C139.839 30.7569 140.252 37.2228 139.694 43.5101C139.137 49.7974 137.645 55.9492 136.398 62.255C140.852 74.0225 142.49 86.6394 141.186 99.1289C147.302 104.012 152.34 110.146 156.851 116.581C165.681 129.167 172.674 143.152 176.672 158.055C180.67 172.957 181.61 188.771 178.696 203.858C190.958 201.885 202.16 195.835 210.428 186.72C218.776 177.415 223.759 165.659 224.602 153.282C225.367 141.834 222.654 129.82 226.846 119.167C228.394 115.238 230.806 111.722 233.413 108.415C235.625 105.607 238.05 102.873 241.133 101.093C245.657 98.4885 251.159 98.2237 256.322 98.8333C258.534 99.0981 260.847 99.5599 262.526 101.038C264.299 102.596 265.07 105.01 265.528 107.337C267.113 115.417 265.941 123.822 263.692 131.735C261.442 139.648 258.14 147.204 255.364 154.945C249.937 170.093 246.403 186.227 237.649 199.689C230.587 210.539 220.103 219.271 207.865 223.206C195.627 227.141 181.685 226.02 170.268 218.994C164.935 224.339 158.988 229.253 152.095 232.184C145.202 235.115 137.125 235.879 129.744 232.628C128.163 235.004 126.194 237.107 123.916 238.853C122.497 240.053 120.781 240.865 118.94 241.206C117.104 241.44 115.062 240.775 114.065 239.198C112.969 237.462 113.37 235.214 113.401 233.151C113.457 228.637 111.521 224.376 109.51 220.342C108.451 218.206 106.715 215.742 104.396 216.161C102.598 216.481 101.564 218.477 101.401 220.312C101.094 223.699 102.78 226.913 103.4 230.257C103.918 233.067 103.685 235.961 102.723 238.656C102.335 239.991 101.52 241.168 100.399 242.012C98.0048 243.552 94.8466 242.117 92.8289 240.461C91.701 240.461 90.7548 239.641 89.9151 238.866C88.0039 237.098 86.0926 235.331 83.9433 233.151C82.8028 235.066 80.5846 236.273 77.5329 235.873C63.2438 223.15 54.0075 205.86 51.4652 187.077C50.0051 176.245 50.8072 165.185 52.919 154.44C55.3127 142.432 59.3482 130.424 58.4458 119.118Z" fill="white"/>
<path d="M74.9517 34.9503C74.983 39.5627 77.7527 43.7624 81.1803 46.7983C86.2498 51.2813 93.1991 53.8184 99.8351 52.6915C106.471 51.5645 112.512 46.3918 113.872 39.7228C102.295 37.1209 90.5171 35.473 78.6613 34.7964C77.1198 34.704 75.4718 34.6609 74.9517 34.9503Z" fill="#F6DFA8"/>
<path d="M152.44 113.151C145.265 121.587 140.265 132.111 139.381 143.201C138.498 154.292 142.013 165.894 149.708 173.837C157.403 181.781 169.384 185.537 179.93 182.422C179.46 156.373 169.146 130.633 152.44 113.151Z" fill="#F6DFA8"/>
<path d="M225.185 140.43C221.996 124.912 230.154 107.732 244.122 100.564C247.349 98.9072 251.015 97.731 254.568 98.3406C258.729 99.055 262.238 102.189 264.161 105.995C266.085 109.801 266.58 114.21 266.367 118.483C265.809 129.482 260.865 139.673 256.698 149.84C252.115 161.025 248.383 172.529 245.532 184.257C240.832 180.266 242.179 173.172 242.493 167.014C242.806 160.856 241.484 153.849 237.411 149.212C233.613 144.846 225.881 143.811 225.185 140.43Z" fill="#EDB24E"/>
<path d="M62.9204 64.6935C62.3032 64.4015 61.6057 64.3163 60.9346 64.4508C60.2635 64.5854 59.6558 64.9324 59.2044 65.4386C58.7629 65.9899 58.5377 66.6788 58.5699 67.3797C58.6021 68.0805 58.8896 68.7467 59.3799 69.2566C59.7157 69.5267 60.1098 69.7182 60.5322 69.8163C60.9545 69.9145 61.3941 69.9168 61.8175 69.8231C62.4034 69.7309 62.9523 69.4822 63.4043 69.1043C63.8562 68.7264 64.1939 68.2338 64.3804 67.6801C64.5076 67.0937 64.4333 66.4824 64.1691 65.942C63.9048 65.4015 63.4657 64.9624 62.9204 64.6935Z" fill="#333333"/>
<path d="M103.35 69.5212C102.734 69.2229 102.035 69.1342 101.362 69.2691C100.69 69.4039 100.082 69.7548 99.6341 70.2663C99.1926 70.8176 98.9674 71.5065 98.9996 72.2073C99.0318 72.9082 99.3193 73.5743 99.8096 74.0842C100.145 74.3544 100.539 74.5458 100.962 74.644C101.384 74.7421 101.824 74.7445 102.247 74.6508C102.833 74.5585 103.382 74.3099 103.834 73.932C104.286 73.554 104.624 73.0614 104.81 72.5078C104.939 71.9213 104.866 71.3092 104.602 70.7682C104.337 70.2273 103.897 69.7884 103.35 69.5212Z" fill="#333333"/>
<path d="M78.7364 237.499C78.4701 237.501 78.2128 237.404 78.0158 237.228C56.936 218.754 46.722 186.732 51.9982 155.634C52.5434 152.426 53.2515 149.175 53.9157 146.028C55.7956 137.197 57.782 128.071 56.4222 119.192C48.1194 114.462 42.1727 104.653 40.8505 93.4512C39.5972 82.9827 42.1037 72.2678 44.2907 62.7907L50.557 35.6956C52.5559 27.0745 54.6238 18.1023 58.8034 10.0169C58.8869 9.85285 59.0122 9.71283 59.167 9.61034C59.3218 9.50785 59.5009 9.44638 59.6869 9.43187C59.8726 9.41536 60.0595 9.44706 60.2289 9.52378C60.3982 9.60051 60.5441 9.71957 60.6519 9.86908C66.3071 17.5532 71.3757 25.6381 75.8163 34.0576C89.8232 33.5674 103.812 35.442 117.174 39.5998C123.02 33.0505 129.814 27.382 137.339 22.7762C137.484 22.6892 137.649 22.6369 137.819 22.6234C137.989 22.6098 138.16 22.6355 138.318 22.6982C138.476 22.761 138.617 22.8592 138.73 22.985C138.843 23.1108 138.924 23.2607 138.968 23.4228C142.345 36.1513 141.832 48.7813 137.389 62.0148C142.483 73.6102 144.175 86.2587 142.402 99.6277C170.87 124.481 185.677 164.761 180.426 202.731C202.546 199.141 221.382 179.121 223.632 156.509C223.993 151.735 224.068 146.944 223.857 142.161C223.6 131.637 223.331 120.762 229.265 111.987C232.743 106.857 237.937 103.298 242.079 100.767C249.305 96.3455 255.019 95.3787 259.562 97.8049C263.867 100.102 265.747 104.936 266.562 108.581C269.444 121.513 264.281 134.131 259.28 146.342C257.62 150.406 255.903 154.606 254.531 158.72C253.378 162.162 252.419 165.74 251.491 169.188C250.464 173 249.411 176.941 248.089 180.747C242.725 196.197 233.05 209.073 220.762 217.005C207.214 225.768 190.683 228.206 176.54 223.532C176.284 223.427 176.078 223.231 175.964 222.983C175.849 222.735 175.834 222.453 175.922 222.195C176.011 221.936 176.195 221.72 176.439 221.59C176.683 221.46 176.967 221.426 177.236 221.494C190.752 225.971 206.575 223.618 219.558 215.219C231.421 207.54 240.82 195.052 246.021 180.057C247.318 176.319 248.365 172.415 249.38 168.64C250.32 165.149 251.26 161.534 252.456 158.03C253.854 153.855 255.59 149.618 257.256 145.523C262.132 133.614 267.17 121.291 264.431 109.019C263.842 106.395 262.294 101.684 258.522 99.6708C254.75 97.6572 249.749 98.5932 243.232 102.565C239.278 104.985 234.328 108.372 231.082 113.157C225.53 121.347 225.775 131.415 226.069 142.099C226.288 146.97 226.208 151.85 225.831 156.712C223.444 180.728 203.009 201.992 179.31 205.058C179.142 205.081 178.97 205.064 178.81 205.01C178.649 204.955 178.504 204.864 178.386 204.745C178.267 204.625 178.179 204.479 178.129 204.32C178.078 204.16 178.066 203.991 178.095 203.827C183.872 165.931 169.146 125.479 140.585 100.785C140.451 100.667 140.348 100.518 140.286 100.352C140.224 100.185 140.203 100.007 140.227 99.8309C142.107 86.5051 140.422 73.9181 135.283 62.4212C135.176 62.1773 135.165 61.903 135.252 61.6515C139.507 49.1754 140.171 37.2721 137.276 25.3194C130.234 29.8074 123.875 35.2539 118.389 41.4964C118.252 41.6566 118.068 41.7727 117.863 41.8297C117.657 41.8868 117.439 41.8822 117.236 41.8166C103.687 37.5319 89.4737 35.6348 75.2524 36.2129C75.0442 36.2239 74.8373 36.175 74.657 36.0722C74.4767 35.9694 74.3308 35.8171 74.2372 35.634C70.0425 27.6298 65.2831 19.9238 59.994 12.5724C56.4535 20.0113 54.5611 28.2137 52.7188 36.1575L46.4525 63.2525C44.1967 73.0129 41.8594 83.1059 43.05 93.1926C44.3032 103.932 50.0369 113.268 57.9762 117.566C58.1221 117.642 58.2479 117.751 58.3437 117.884C58.4394 118.016 58.5024 118.169 58.5277 118.329C60.1068 127.757 58.064 137.265 56.0838 146.459C55.4133 149.581 54.7178 152.814 54.2039 155.973C49.0531 186.338 58.9914 217.596 79.5197 235.614C79.6268 235.708 79.7141 235.821 79.7765 235.948C79.8389 236.075 79.8753 236.213 79.8834 236.354C79.8916 236.494 79.8714 236.635 79.824 236.768C79.7767 236.901 79.703 237.024 79.6074 237.129C79.5008 237.252 79.3668 237.35 79.2158 237.414C79.0647 237.478 78.9007 237.507 78.7364 237.499Z" fill="#333333"/>
<path d="M135.866 235.984H134.907C134.764 235.98 134.623 235.949 134.492 235.893C134.361 235.836 134.243 235.754 134.144 235.652C134.045 235.55 133.967 235.431 133.915 235.299C133.864 235.168 133.839 235.028 133.842 234.887C133.845 234.747 133.877 234.608 133.935 234.479C133.993 234.35 134.076 234.234 134.179 234.137C134.283 234.04 134.405 233.964 134.538 233.913C134.672 233.862 134.814 233.837 134.957 233.841C146.381 233.998 157.454 229.964 166.013 222.528C169.403 219.573 171.596 216.678 172.737 213.692C172.837 213.425 173.04 213.207 173.303 213.088C173.565 212.968 173.866 212.956 174.137 213.054C174.409 213.152 174.63 213.352 174.752 213.61C174.873 213.869 174.886 214.164 174.786 214.431C173.533 217.756 171.126 220.921 167.473 224.117C158.746 231.701 147.516 235.917 135.866 235.984Z" fill="#333333"/>
<path d="M97.7104 243.558C96.7497 243.56 95.7943 243.417 94.8781 243.133C91.7449 242.142 89.3262 239.894 87.1768 237.591C80.5895 230.556 75.4052 222.367 71.8934 213.452C71.791 213.186 71.7995 212.892 71.9168 212.632C72.0341 212.373 72.2509 212.169 72.52 212.066C72.6536 212.014 72.7963 211.99 72.9398 211.993C73.0833 211.996 73.2247 212.027 73.3559 212.084C73.4871 212.142 73.6053 212.224 73.7039 212.326C73.8024 212.429 73.8792 212.55 73.9299 212.682C77.3447 221.343 82.3797 229.298 88.7747 236.137C90.7298 238.207 92.8979 240.233 95.5423 241.064C97.842 241.791 100.931 241.396 102.385 239.216C104.008 236.809 103.012 233.496 102.078 230.287C101.884 229.641 101.696 229 101.533 228.372C100.818 225.702 100.537 222.938 100.699 220.182C100.844 217.596 101.621 215.909 103.062 215.016C103.515 214.733 104.023 214.546 104.554 214.465C105.084 214.385 105.626 214.413 106.145 214.548C108.232 215.046 109.986 216.931 110.939 218.526C113.85 223.434 114.997 229.162 114.197 234.789L114.116 235.325C113.913 236.229 113.879 237.161 114.015 238.077C114.492 240.189 117.148 241.218 119.204 240.811C121.629 240.343 123.678 238.496 125.357 236.747C134.44 227.17 139.867 214.798 140.716 201.733C140.733 201.449 140.865 201.183 141.082 200.994C141.299 200.805 141.583 200.709 141.872 200.726C142.161 200.743 142.432 200.873 142.624 201.086C142.816 201.299 142.914 201.578 142.897 201.862C142.003 215.419 136.367 228.255 126.943 238.194C125.025 240.189 122.65 242.302 119.624 242.893C116.597 243.484 112.649 241.883 111.885 238.521C111.68 237.346 111.706 236.145 111.96 234.98L112.035 234.463C112.741 229.316 111.694 224.085 109.059 219.585C108.163 218.076 106.784 216.882 105.631 216.604C105.396 216.538 105.15 216.52 104.908 216.554C104.666 216.588 104.434 216.673 104.227 216.801C103.432 217.294 102.974 218.464 102.874 220.275C102.729 222.809 102.987 225.35 103.638 227.806C103.801 228.422 103.989 229.037 104.171 229.653C105.211 233.157 106.383 237.129 104.202 240.362C102.723 242.628 100.154 243.558 97.7104 243.558Z" fill="#333333"/>
<path d="M242.587 181.11C242.335 181.109 242.09 181.023 241.895 180.866C241.7 180.709 241.566 180.491 241.515 180.248C240.757 176.498 241.02 172.655 241.271 168.942C241.521 165.229 241.766 161.755 241.089 158.319C240.455 155.17 239.051 152.22 236.997 149.723C234.944 147.227 232.303 145.259 229.302 143.99C229.035 143.882 228.822 143.674 228.71 143.412C228.598 143.15 228.597 142.855 228.707 142.592C228.817 142.329 229.028 142.12 229.295 142.01C229.562 141.9 229.862 141.899 230.129 142.007C233.464 143.414 236.401 145.597 238.686 148.369C240.97 151.14 242.535 154.415 243.245 157.913C243.972 161.608 243.715 165.419 243.464 169.09C243.213 172.76 242.969 176.356 243.671 179.829C243.721 180.104 243.658 180.387 243.498 180.617C243.337 180.848 243.091 181.007 242.812 181.061C242.74 181.087 242.664 181.104 242.587 181.11Z" fill="#333333"/>
<path d="M171.697 184.688C168.392 184.628 165.131 183.942 162.091 182.668C150.11 177.902 140.873 166.226 138.554 152.919C136.324 140.079 140.303 126.322 149.207 116.119C149.396 115.903 149.664 115.77 149.952 115.749C150.241 115.727 150.526 115.819 150.746 116.005C150.965 116.19 151.1 116.454 151.122 116.737C151.144 117.021 151.05 117.301 150.861 117.517C142.509 127.092 138.623 140.523 140.716 152.562C142.897 165.167 151.601 176.184 162.88 180.685C167.267 182.434 171.352 182.951 174.98 182.218C175.121 182.19 175.265 182.189 175.406 182.216C175.547 182.242 175.681 182.296 175.8 182.373C175.92 182.451 176.023 182.551 176.103 182.667C176.183 182.784 176.239 182.915 176.268 183.053C176.297 183.191 176.298 183.333 176.271 183.471C176.244 183.609 176.189 183.741 176.11 183.858C176.031 183.976 175.93 184.077 175.811 184.156C175.693 184.235 175.559 184.29 175.419 184.318C174.194 184.565 172.947 184.689 171.697 184.688Z" fill="#333333"/>
<path d="M96.1128 53.8061C94.6392 53.8099 93.1692 53.6634 91.7264 53.3689C84.9588 51.9957 78.7615 47.5558 74.726 41.1946C74.6428 41.0753 74.5851 40.9408 74.5563 40.799C74.5275 40.6572 74.5281 40.5112 74.5583 40.3696C74.5884 40.2281 74.6474 40.0941 74.7316 39.9755C74.8158 39.857 74.9236 39.7564 75.0485 39.6799C75.1733 39.6034 75.3126 39.5525 75.458 39.5303C75.6034 39.5081 75.7518 39.515 75.8944 39.5507C76.0369 39.5863 76.1707 39.65 76.2876 39.7378C76.4045 39.8256 76.5021 39.9357 76.5745 40.0615C80.2967 45.9239 85.9739 50.0128 92.165 51.2691C98.707 52.5992 105.7 50.4993 109.993 45.9239C110.089 45.8196 110.206 45.7352 110.336 45.6756C110.466 45.616 110.607 45.5823 110.75 45.5766C110.894 45.5709 111.037 45.5932 111.171 45.6422C111.306 45.6913 111.429 45.7661 111.534 45.8624C111.745 46.0559 111.871 46.3235 111.882 46.6071C111.894 46.8908 111.791 47.1675 111.597 47.3772C109.597 49.4276 107.192 51.0553 104.529 52.1608C101.867 53.2662 99.003 53.8261 96.1128 53.8061Z" fill="#333333"/>
<path d="M79.1187 91.8316C75.9455 91.1615 73.1181 89.4044 71.1418 86.8744C70.5067 86.168 70.1162 85.2819 70.0264 84.3435C70.0463 83.7565 70.2192 83.1844 70.5286 82.6819C70.838 82.1795 71.2736 81.7635 71.7935 81.4739C72.8277 80.9225 73.9766 80.6108 75.1522 80.5625C77.1076 80.4147 79.0702 80.3777 81.03 80.4516C82.2574 80.4018 83.4835 80.5773 84.6456 80.9689C85.2332 81.1761 85.755 81.5316 86.1587 81.9996C86.5623 82.4676 86.8336 83.0317 86.9453 83.6353C87.1145 85.0393 86.162 86.3017 85.266 87.3855L83.5177 89.5039C83.0112 90.1831 82.4051 90.7849 81.7192 91.2897C81.3458 91.5485 80.9227 91.73 80.4756 91.8231C80.0286 91.9163 79.5669 91.9192 79.1187 91.8316Z" fill="#333333"/>
<path d="M86.7138 125.245C84.2288 122.253 81.4219 119.534 78.342 117.135C76.2365 115.497 73.824 113.957 71.1609 113.97C70.3274 113.97 68.7233 114.585 68.0653 116.753C66.6053 121.599 66.8121 125.787 67.1128 130.842C67.1584 132.523 67.4735 134.185 68.0465 135.769C68.4789 136.853 69.2058 137.93 70.3149 138.269C71.7311 138.7 73.1723 137.789 74.3817 136.92C78.0976 134.254 82.3963 131.323 86.1122 128.656C90.1414 132.536 94.4777 136.822 98.9957 140.104C101.233 141.724 103.075 138.712 103.319 137.733C104.924 131.452 105.732 124.506 103.714 118.354C102.68 115.213 100.099 115.928 98.6698 116.882C96.5142 118.366 90.8182 122.061 86.7138 125.245Z" fill="#333333"/>
<path d="M108.013 88.1923C107.742 88.1969 107.479 88.1025 107.276 87.9273C107.072 87.7522 106.942 87.5089 106.911 87.2447C106.879 86.9805 106.949 86.7144 107.107 86.498C107.264 86.2816 107.498 86.1305 107.762 86.0739C112.109 85.0874 116.548 84.5427 121.009 84.4482C121.296 84.448 121.573 84.5566 121.78 84.7517C121.988 84.9467 122.111 85.213 122.124 85.4951C122.128 85.6363 122.102 85.7768 122.05 85.9084C121.998 86.0401 121.92 86.1603 121.821 86.2622C121.721 86.3641 121.602 86.4456 121.47 86.502C121.338 86.5585 121.196 86.5888 121.053 86.5912C116.743 86.6784 112.455 87.2067 108.257 88.1676C108.177 88.185 108.095 88.1933 108.013 88.1923Z" fill="#333333"/>
<path d="M114.937 100.071C114.697 100.07 114.464 99.9923 114.273 99.8493C111.885 98.0255 109.332 96.4199 106.647 95.0523C106.52 94.9872 106.407 94.8981 106.315 94.7902C106.223 94.6822 106.153 94.5575 106.11 94.4231C106.067 94.2887 106.051 94.1473 106.064 94.007C106.076 93.8666 106.117 93.7301 106.183 93.6052C106.249 93.4802 106.34 93.3693 106.45 93.2788C106.56 93.1883 106.687 93.1199 106.823 93.0776C106.96 93.0353 107.104 93.0199 107.247 93.0322C107.39 93.0445 107.529 93.0844 107.656 93.1495C110.455 94.5753 113.117 96.249 115.608 98.1498C115.789 98.2864 115.922 98.4755 115.987 98.6903C116.053 98.9052 116.049 99.1349 115.975 99.3472C115.901 99.5594 115.761 99.7434 115.575 99.8733C115.388 100.003 115.165 100.072 114.937 100.071Z" fill="#333333"/>
<path d="M51.0082 82.9641C50.8662 82.9649 50.7256 82.9377 50.5946 82.884C46.0596 81.0574 41.2708 79.9115 36.3889 79.4848C36.1006 79.4595 35.8343 79.3227 35.6486 79.1044C35.4629 78.8861 35.3731 78.6043 35.3989 78.321C35.4246 78.0376 35.5639 77.7759 35.786 77.5934C36.0081 77.411 36.2948 77.3227 36.5832 77.348C41.6824 77.7964 46.6842 78.9942 51.4217 80.9012C51.6555 80.9953 51.8487 81.1663 51.9684 81.3849C52.0881 81.6035 52.1268 81.8562 52.078 82.0997C52.0292 82.3433 51.8958 82.5626 51.7007 82.7202C51.5055 82.8779 51.2608 82.9641 51.0082 82.9641Z" fill="#333333"/>
<path d="M36.4454 94.6151C36.1917 94.618 35.9449 94.5339 35.7475 94.3773C35.5502 94.2206 35.4145 94.0012 35.3641 93.7569C35.3136 93.5125 35.3514 93.2585 35.471 93.0386C35.5906 92.8187 35.7845 92.6467 36.0193 92.5522C40.4256 90.7275 45.1053 89.6209 49.874 89.2762C50.0178 89.2638 50.1626 89.2796 50.3002 89.3227C50.4377 89.3657 50.5651 89.4352 50.6751 89.5271C50.7851 89.6189 50.8755 89.7313 50.9409 89.8577C51.0063 89.9841 51.0456 90.1221 51.0564 90.2635C51.0672 90.405 51.0493 90.5471 51.0037 90.6817C50.9582 90.8163 50.8859 90.9406 50.7911 91.0476C50.6962 91.1545 50.5807 91.2419 50.4513 91.3046C50.3218 91.3673 50.181 91.4042 50.0369 91.413C45.508 91.7461 41.064 92.7984 36.8778 94.5289C36.7419 94.5887 36.5942 94.6181 36.4454 94.6151Z" fill="#333333"/>
<path d="M164.227 63.4742C171.013 59.7055 175.506 52.0019 175.437 44.1689C175.65 48.1347 175.882 52.1743 177.286 55.8999C178.69 59.6254 181.472 63.0123 185.25 64.1023C181.936 64.7489 179.229 67.3044 177.562 70.2603C175.895 73.2161 175.112 76.6153 174.347 79.9406C174.736 73.5979 170.637 67.2552 164.227 63.4742Z" fill="white"/>
<path d="M174.347 81.0243H174.197C173.926 80.9876 173.678 80.852 173.504 80.6444C173.33 80.4367 173.242 80.1723 173.257 79.9036C173.614 74.109 169.848 68.031 163.663 64.404C163.5 64.3094 163.364 64.1744 163.269 64.0124C163.175 63.8504 163.125 63.6669 163.125 63.4803C163.125 63.2936 163.175 63.1102 163.269 62.9482C163.364 62.7862 163.5 62.6512 163.663 62.5566C170.086 58.9911 174.366 51.6139 174.316 44.1935C174.313 43.9125 174.422 43.6414 174.62 43.4386C174.818 43.2359 175.089 43.1178 175.375 43.1097C175.659 43.1059 175.933 43.2091 176.142 43.3981C176.35 43.5872 176.477 43.8476 176.497 44.1258C176.703 47.9745 176.916 51.9464 178.276 55.5427C179.717 59.3791 182.431 62.1994 185.526 63.0923C185.762 63.1589 185.967 63.3014 186.11 63.4968C186.253 63.6922 186.324 63.9291 186.314 64.1694C186.303 64.4097 186.21 64.6395 186.05 64.8217C185.89 65.0038 185.673 65.1278 185.432 65.1737C182.738 65.6972 180.206 67.7539 178.489 70.8083C176.885 73.6717 176.121 76.997 175.356 80.2053C175.301 80.4307 175.173 80.6324 174.991 80.7801C174.809 80.9278 174.583 81.0135 174.347 81.0243ZM166.257 63.4864C170.195 66.096 173.155 69.9003 174.686 74.3183C175.167 72.737 175.812 71.208 176.609 69.7553C177.907 67.3216 179.903 65.3155 182.349 63.9852C179.507 62.1459 177.365 59.4324 176.258 56.2693C175.752 54.903 175.368 53.4957 175.112 52.0634C173.442 56.6839 170.347 60.6772 166.257 63.4864Z" fill="#333333"/>
<path d="M19.7083 137.044C16.6191 135.603 14.6076 132.733 13.6551 129.765C12.7026 126.797 12.6776 123.607 12.6588 120.528C12.2194 123.685 11.1958 126.736 9.63843 129.531C7.9716 132.308 5.3711 134.74 1.08496 136.354C4.38729 138.06 6.64315 141.052 7.97787 144.236C9.31258 147.42 9.76375 150.819 10.2275 154.187C10.5909 151.238 10.9731 148.226 12.3204 145.511C13.6676 142.795 16.1303 140.344 19.7083 137.044Z" fill="white"/>
<path d="M10.2082 155.253C9.94375 155.252 9.68844 155.158 9.48924 154.987C9.29003 154.816 9.16036 154.58 9.1241 154.323C8.67919 151.071 8.22175 147.709 6.9497 144.63C5.97843 142.284 4.08601 139.088 0.576893 137.296C0.39268 137.199 0.24067 137.051 0.1388 136.872C0.0369314 136.692 -0.0105517 136.488 0.00196467 136.283C0.014481 136.077 0.0864669 135.88 0.209432 135.714C0.332397 135.547 0.501207 135.419 0.695944 135.344C4.33665 133.971 6.96223 131.889 8.70426 128.983C10.4463 126.076 11.1481 122.856 11.5867 120.362C11.6362 120.101 11.7822 119.868 11.9964 119.707C12.2107 119.546 12.478 119.469 12.7468 119.49C13.0155 119.512 13.2667 119.63 13.4517 119.823C13.6367 120.016 13.7425 120.269 13.7486 120.534C13.7486 123.521 13.7862 126.606 14.6948 129.463C15.099 130.878 15.794 132.197 16.7371 133.337C17.6801 134.478 18.8512 135.417 20.1778 136.095C20.3379 136.17 20.477 136.283 20.5829 136.423C20.6888 136.563 20.7584 136.726 20.7855 136.898C20.8127 137.07 20.7967 137.247 20.7388 137.411C20.6809 137.576 20.583 137.725 20.4535 137.844C17.076 140.96 14.582 143.386 13.2849 145.991C11.9878 148.596 11.6431 151.502 11.2922 154.329C11.2589 154.588 11.1313 154.825 10.9332 154.999C10.735 155.172 10.4796 155.269 10.2144 155.271L10.2082 155.253ZM3.40924 136.514C5.90856 138.408 7.83287 140.938 8.9737 143.83C9.4961 145.134 9.9151 146.476 10.227 147.845C10.503 146.879 10.8658 145.939 11.311 145.037C12.6207 142.382 14.864 140.067 17.8718 137.259C15.3337 135.523 13.4781 132.984 12.6144 130.066C12.3362 129.153 12.1268 128.221 11.9878 127.277C11.6028 128.241 11.1419 129.173 10.6092 130.066C8.91993 132.875 6.41176 135.121 3.40924 136.514Z" fill="#333333"/>
<path d="M28.0855 226.63C24.5263 226.63 21.0234 224.382 19.131 220.884C17.1258 217.19 17.2511 213.107 17.7023 210.33C17.9642 208.584 18.4945 206.888 19.2751 205.299L19.0684 205.132C16.0417 202.632 14.4564 198.358 14.9326 194.048C15.4464 189.386 18.0219 185.735 20.096 183.487C20.1897 183.375 20.3055 183.283 20.4364 183.217C20.5672 183.15 20.7105 183.11 20.8574 183.1C21.0044 183.089 21.152 183.108 21.2914 183.155C21.4308 183.202 21.5591 183.276 21.6684 183.373C21.7778 183.47 21.866 183.588 21.9277 183.719C21.9895 183.851 22.0234 183.993 22.0276 184.138C22.0317 184.283 22.0059 184.427 21.9518 184.562C21.8977 184.696 21.8164 184.819 21.7127 184.922C19.8328 186.935 17.5519 190.193 17.1007 194.276C16.7122 197.841 18.0156 201.437 20.4219 203.463C20.5911 203.242 20.7603 203.032 20.9357 202.848C22.991 200.501 25.9487 199.288 28.6871 199.689C29.2855 199.773 29.8608 199.974 30.3793 200.28C30.8979 200.586 31.3494 200.99 31.7074 201.468C31.935 201.782 32.091 202.14 32.1645 202.519C32.2381 202.897 32.2275 203.286 32.1336 203.66C31.9093 204.418 31.4381 205.082 30.7926 205.551C28.2046 207.639 24.3195 207.916 21.1425 206.456C20.5095 207.803 20.0769 209.232 19.8579 210.699C19.4569 213.162 19.3378 216.74 21.0548 219.936C22.5649 222.719 25.4412 224.554 28.1482 224.542C28.2918 224.539 28.4347 224.564 28.5684 224.616C28.702 224.667 28.8238 224.745 28.9266 224.844C29.0293 224.942 29.111 225.06 29.1667 225.19C29.2224 225.32 29.2511 225.46 29.2511 225.601C29.2527 225.742 29.2261 225.882 29.1729 226.012C29.1196 226.143 29.0407 226.262 28.9406 226.363C28.8405 226.463 28.7212 226.544 28.5896 226.599C28.4579 226.654 28.3164 226.684 28.1733 226.685L28.0855 226.63ZM22.283 204.578C24.6767 205.6 27.5153 205.379 29.4077 203.851C29.6885 203.674 29.9071 203.416 30.0343 203.112C30.0512 203.027 30.0493 202.938 30.0287 202.854C30.0082 202.769 29.9695 202.689 29.9153 202.62C29.536 202.157 28.9916 201.853 28.3926 201.77C26.3936 201.474 24.1816 202.386 22.6088 204.202C22.5148 204.338 22.3832 204.461 22.283 204.578Z" fill="#333333"/>
<path d="M189.198 138.361C188.989 138.359 188.779 138.345 188.572 138.318C187.841 138.204 187.141 137.944 186.517 137.553C185.893 137.162 185.357 136.649 184.943 136.046C183.621 134.069 183.596 131.563 183.728 129.598C183.893 127.08 184.302 124.583 184.95 122.141C181.618 118.406 177.31 115.638 172.492 114.136C172.227 114.045 172.007 113.857 171.879 113.611C171.751 113.365 171.724 113.08 171.805 112.815C171.886 112.551 172.068 112.327 172.313 112.191C172.558 112.055 172.846 112.017 173.119 112.085C177.884 113.56 182.194 116.19 185.651 119.733C187.666 113.635 191.158 108.108 195.828 103.63C195.93 103.529 196.052 103.45 196.186 103.395C196.32 103.341 196.463 103.314 196.608 103.315C196.753 103.316 196.896 103.345 197.029 103.401C197.163 103.457 197.283 103.539 197.384 103.641C197.485 103.743 197.564 103.864 197.616 103.997C197.669 104.13 197.694 104.271 197.69 104.414C197.687 104.556 197.654 104.696 197.595 104.826C197.535 104.956 197.45 105.073 197.344 105.17C192.614 109.703 189.159 115.363 187.318 121.599C189.549 124.253 191.296 127.265 192.482 130.504C193.603 133.583 193.309 136.046 191.648 137.462C190.967 138.04 190.098 138.359 189.198 138.361ZM186.692 124.247C186.295 126.055 186.035 127.889 185.915 129.734C185.802 131.464 185.814 133.429 186.779 134.863C187.021 135.214 187.333 135.513 187.696 135.742C188.059 135.971 188.466 136.124 188.891 136.194C189.135 136.238 189.385 136.23 189.625 136.17C189.865 136.111 190.089 136.001 190.282 135.849C191.611 134.74 190.765 132.043 190.477 131.243C189.562 128.745 188.287 126.389 186.692 124.247Z" fill="#333333"/>
<path d="M149.426 138.195C149.166 138.191 148.915 138.095 148.72 137.925C148.525 137.754 148.398 137.521 148.363 137.267C148.328 137.013 148.387 136.755 148.53 136.54C148.672 136.325 148.888 136.167 149.138 136.095C152.874 135.081 156.419 133.48 159.634 131.353C159.874 131.195 160.169 131.137 160.452 131.192C160.736 131.247 160.986 131.41 161.147 131.646C161.309 131.882 161.368 132.171 161.312 132.45C161.256 132.729 161.09 132.975 160.85 133.133C157.44 135.387 153.682 137.084 149.721 138.158C149.625 138.182 149.526 138.195 149.426 138.195Z" fill="white"/>
<path d="M146.431 151.724C146.168 151.726 145.913 151.634 145.714 151.466C145.514 151.297 145.383 151.064 145.345 150.808C145.307 150.552 145.364 150.292 145.506 150.074C145.648 149.857 145.865 149.697 146.118 149.624C152.566 147.715 159.239 145.732 164.992 142.087C165.235 141.932 165.531 141.88 165.814 141.94C166.098 142 166.345 142.168 166.502 142.407C166.659 142.646 166.713 142.937 166.652 143.215C166.591 143.494 166.42 143.737 166.176 143.891C160.16 147.697 153.343 149.723 146.751 151.681C146.647 151.71 146.539 151.725 146.431 151.724Z" fill="white"/>
<path d="M152.29 163.751C152.025 163.753 151.768 163.661 151.567 163.49C151.366 163.32 151.235 163.083 151.199 162.825C151.163 162.567 151.224 162.304 151.371 162.087C151.517 161.87 151.739 161.712 151.996 161.645C158.221 159.913 164.174 157.346 169.685 154.015C169.809 153.941 169.946 153.892 170.088 153.871C170.231 153.849 170.377 153.855 170.517 153.889C170.657 153.923 170.789 153.983 170.906 154.067C171.022 154.151 171.121 154.257 171.196 154.378C171.27 154.499 171.32 154.634 171.342 154.774C171.364 154.915 171.358 155.058 171.323 155.195C171.289 155.333 171.227 155.463 171.142 155.577C171.057 155.692 170.949 155.789 170.826 155.862C165.144 159.3 159.005 161.948 152.585 163.732C152.488 163.754 152.389 163.76 152.29 163.751Z" fill="white"/>
<path d="M162.993 174.09C162.727 174.092 162.47 174 162.269 173.829C162.069 173.659 161.938 173.423 161.902 173.164C161.866 172.906 161.927 172.644 162.073 172.426C162.22 172.209 162.442 172.052 162.698 171.984C165.913 171.075 168.901 169.519 171.471 167.415C171.694 167.241 171.977 167.16 172.259 167.189C172.542 167.218 172.802 167.354 172.984 167.568C173.166 167.782 173.256 168.058 173.235 168.337C173.213 168.615 173.082 168.874 172.868 169.059C170.06 171.354 166.798 173.053 163.287 174.047C163.192 174.075 163.093 174.09 162.993 174.09Z" fill="white"/>
</svg>
