<svg width="291" height="241" viewBox="0 0 291 241" fill="none" xmlns="http://www.w3.org/2000/svg">
<path d="M105.453 0.850775C83.7027 2.08237 63.7946 12.4339 53.9879 31.5606C44.1812 50.6872 40.34 72.7513 27.7071 90.203C18.69 102.661 5.18606 112.895 1.77721 127.81C0.285834 134.368 0.95017 141.222 2.20343 147.829C9.59137 186.624 38.5477 220.844 76.0452 235.038C88.9976 239.965 103.466 242.551 116.776 238.653C134.779 233.376 149.016 216.774 167.796 216.441C183.618 216.164 197.035 227.643 212.399 231.356C233.479 236.449 256.32 225.641 269.329 208.572C282.337 191.502 286.749 169.333 286.348 148.002C285.909 124.829 277.688 98.6702 256.088 89.3655C242.929 83.694 226.636 85.2273 215.407 76.4338C206.165 69.1797 203.031 56.993 198.119 46.4136C181.055 9.66286 136.891 -0.947353 105.453 0.850775Z" fill="#EBEBEB"/>
<path d="M139.253 175.965C131.479 179.607 123.185 182.059 114.658 183.238C111.493 188.823 108.235 194.519 103.378 198.756C98.5221 202.993 91.6418 205.567 85.4068 203.75C85.0685 202.395 85.8267 201.034 86.4972 199.803C93.0016 187.85 92.7008 172.141 83.9907 160.897C82.8174 163.509 81.9756 166.254 81.4841 169.068C74.3007 161.894 68.7327 153.315 65.1416 143.888C63.7944 145.523 62.6714 147.324 61.8017 149.246C56.1574 134.664 54.7537 118.826 57.7474 103.504C54.6769 106.731 51.7068 110.044 48.9058 113.357C47.9846 109.151 48.4483 104.779 49.0561 100.524C50.1026 93.2452 51.5626 86.0341 53.1918 78.7862C50.9359 79.2296 48.6802 79.673 46.0859 80.2703C51.0085 68.34 58.8802 57.8041 68.9891 49.6159C70.5428 40.0793 73.6667 30.855 78.2381 22.3053C81.4464 24.7254 83.0068 28.648 85.5008 31.7763C86.3603 32.8139 87.2744 33.8067 88.2392 34.7506C89.5457 36.1491 90.9642 37.4423 92.4813 38.6178C102.765 35.2598 113.812 34.8687 124.314 37.4909C127.855 31.2898 132.053 25.1749 138.219 21.3385C150.993 45.286 157.746 71.8912 157.914 98.929C158.002 125.889 151.441 152.817 139.253 175.965Z" fill="white"/>
<path d="M16.7031 46.703C19.605 45.6682 22.1067 43.7709 23.8608 41.2746C25.615 38.7783 26.5344 35.807 26.4911 32.7737C27.0238 35.5632 27.6504 38.4021 29.1417 40.8283C30.6331 43.2546 33.1647 45.2497 36.0347 45.3975C33.5851 47.2005 31.6057 49.5489 30.2593 52.2498C28.9129 54.9507 28.2377 57.9269 28.2895 60.9341C26.7041 58.0337 26.4096 54.4559 24.2666 51.9311C23.4824 51.0742 22.6015 50.3078 21.641 49.6465C20.1058 48.4827 18.5454 47.3127 16.7031 46.703Z" fill="white"/>
<path d="M184.759 56.6298C189.59 54.8624 193.049 49.4742 192.905 43.9998C193.344 46.5307 193.864 49.1047 195.104 51.3031C196.345 53.5015 198.438 55.3058 200.832 55.4413C196.753 58.6619 194.277 64.0624 194.409 69.5246C193.093 66.8951 192.855 63.656 191.069 61.3652C190.428 60.5949 189.699 59.9006 188.895 59.2962C187.681 58.1818 186.282 57.28 184.759 56.6298Z" fill="white"/>
<path d="M167.319 55.6322C172.74 68.7117 174.801 82.9859 174.551 97.1123C174.3 111.239 171.787 125.242 168.328 138.95C167.394 142.644 166.386 146.339 165.383 150.034L162.877 159.215C161.717 163.483 160.552 167.757 158.973 171.889C157.598 175.434 155.986 178.886 154.148 182.222C150.926 188.111 147.261 193.755 143.182 199.107C150.246 197.058 157.783 197.208 164.756 199.538C168.222 200.708 171.518 202.407 175.115 203.085C181.312 204.249 187.597 202.266 193.732 200.831C203.977 198.429 214.849 197.537 224.982 200.369C227.908 201.188 230.74 202.309 233.679 203.085C239.096 204.546 244.779 204.786 250.304 203.787C251.846 203.492 253.348 203.018 254.778 202.377C255.755 189.106 256.57 175.035 250.272 163.261C248.192 159.382 245.385 155.872 243.737 151.783C240.491 143.777 242.089 134.633 239.939 126.27C237.652 117.397 231.367 110.118 225.151 103.307C223.982 101.93 222.655 100.69 221.197 99.6124C219.543 98.6141 217.812 97.7433 216.021 97.0076C212.405 95.2895 209.128 92.9495 205.888 91.3546C198.168 86.5637 190.373 81.6065 184.401 74.8143C178.943 68.6194 174.958 60.8542 167.319 55.6322Z" fill="#F6DFA8"/>
<path d="M80.8949 168.988L83.7586 162.097C88.5886 167.8 91.0206 175.1 90.5576 182.505C90.5012 183.681 90.3758 184.857 90.3821 186.034C90.3821 187.511 90.6202 188.996 90.3821 190.449C89.956 192.967 88.1951 195.061 86.2651 196.773C82.603 199.963 78.2126 202.24 73.4656 203.409C68.7186 204.578 63.7547 204.607 58.9943 203.491C56.1751 184.371 56.7838 164.914 60.7928 146.001C61.2105 146.871 61.6408 147.741 62.0836 148.611C63.0821 146.781 64.1265 144.98 65.2168 143.211C67.9809 153.036 73.3982 161.943 80.8949 168.988Z" fill="#F6DFA8"/>
<path d="M48.8931 112.002C50.6852 127.49 46.8189 142.989 43.9865 158.329C41.1542 173.668 39.4497 189.956 45.1708 204.667C49.8658 203.258 54.803 202.799 59.6836 203.319C56.2859 186.247 56.3199 168.687 59.7838 151.629C60.507 149.202 60.4743 146.617 59.6899 144.208C56.6108 131.382 55.6313 118.155 56.7885 105.025C54.0815 107.347 51.3745 109.668 48.8931 112.002Z" fill="#EDB24E"/>
<path d="M121.388 203.479C148.753 168.951 161.692 123.709 156.974 80.1964C154.303 63.3414 149.719 46.8335 143.307 30.9818C146.365 31.5483 149.022 33.3773 151.391 35.3602C158.992 41.7029 164.725 50.0592 168.498 59.1238C172.27 68.1883 174.137 77.961 174.946 88.3187C175.338 103.1 173.895 117.873 170.647 132.311C169.118 139.085 167.188 145.859 165.22 152.528C160.452 168.754 155.194 185.436 143.915 197.82C136.295 199.643 128.744 201.656 121.388 203.479Z" fill="#EDB24E"/>
<path d="M85.4062 29.9534C89.6235 27.3547 94.4985 25.963 99.3799 25.027C110.264 22.9025 121.939 22.8902 132.059 27.287C129.333 30.3934 126.807 33.6634 124.495 37.0782C113.955 35.8158 102.989 34.9598 92.9446 38.3467C92.6968 38.4622 92.4172 38.4947 92.1488 38.4391C91.9752 38.3651 91.8209 38.2535 91.6975 38.1127C89.5906 36.0067 87.7015 33.7005 86.0578 31.2281C85.7807 30.8354 85.5614 30.4063 85.4062 29.9534Z" fill="#EDB24E"/>
<path d="M84.3163 76.3353C83.6925 76.1263 83.0166 76.1213 82.3898 76.3211C81.7629 76.5209 81.2187 76.9147 80.8385 77.4438C80.4771 78.0026 80.3379 78.6727 80.4478 79.326C80.5576 79.9792 80.9086 80.5697 81.4338 80.9846C81.79 81.1982 82.19 81.3316 82.605 81.3753C83.02 81.4189 83.4396 81.3718 83.8338 81.2371C84.3782 81.0891 84.8717 80.7992 85.2622 80.3981C85.6527 79.997 85.9257 79.4996 86.0521 78.9586C86.1073 78.3929 85.9657 77.8255 85.6505 77.349C85.3352 76.8725 84.8649 76.5152 84.3163 76.3353Z" fill="#333333"/>
<path d="M123.675 76.3353C123.05 76.1268 122.373 76.1221 121.746 76.3218C121.118 76.5215 120.573 76.915 120.191 77.4438C119.833 78.0061 119.699 78.6785 119.814 79.332C119.93 79.9855 120.287 80.574 120.817 80.9846C121.174 81.1982 121.574 81.3316 121.989 81.3753C122.403 81.4189 122.823 81.3718 123.217 81.2371C123.763 81.09 124.258 80.8006 124.649 80.3994C125.041 79.9983 125.315 79.5004 125.442 78.9586C125.493 78.3894 125.346 77.82 125.025 77.3434C124.704 76.8669 124.228 76.5115 123.675 76.3353Z" fill="#333333"/>
<path d="M119.877 206.558C119.671 206.558 119.469 206.501 119.294 206.392C119.12 206.284 118.98 206.13 118.891 205.946C118.803 205.763 118.769 205.559 118.794 205.358C118.819 205.156 118.901 204.966 119.031 204.809C156.002 159.973 166.893 96.5087 146.829 43.1191C144.874 39.141 143.15 34.8859 141.483 30.8031C140.45 28.2537 139.39 25.6304 138.269 23.0687C133.378 27.3791 129.02 32.2405 125.285 37.5523C125.166 37.7185 125.002 37.848 124.811 37.9254C124.62 38.0029 124.411 38.0251 124.207 37.9895C112.151 35.9635 101.799 36.4993 92.5688 39.6398C92.3767 39.7062 92.1693 39.7177 91.9708 39.673C91.7723 39.6283 91.5907 39.5293 91.4472 39.3873C86.6626 34.5734 82.2632 29.4038 78.288 23.9247C73.6766 32.023 70.8699 40.9923 70.0541 50.2377C70.0404 50.3815 69.9972 50.5211 69.9272 50.6481C69.8572 50.775 69.7618 50.8868 69.6467 50.9767C60.2261 58.3552 52.7598 67.8621 47.884 78.6875C49.7137 78.3242 51.5748 77.9855 53.5236 77.7577C53.7052 77.7379 53.889 77.7631 54.0582 77.8309C54.2273 77.8987 54.3767 78.0069 54.4925 78.1458C54.6083 78.2847 54.6868 78.4498 54.7212 78.6261C54.7556 78.8025 54.7446 78.9845 54.6892 79.1555C51.2786 89.4003 49.4803 100.097 49.3566 110.875L57.252 103.085C57.3519 102.982 57.4719 102.898 57.605 102.841C57.738 102.783 57.8815 102.752 58.0269 102.75C58.1723 102.748 58.3167 102.774 58.4516 102.827C58.5865 102.881 58.7091 102.96 58.8123 103.061C58.9156 103.161 58.9971 103.281 59.0525 103.413C59.1079 103.546 59.1358 103.687 59.1347 103.83C59.1335 103.973 59.1033 104.114 59.0458 104.245C58.9883 104.377 58.9046 104.495 58.7998 104.594L49.037 114.225C48.8842 114.373 48.6907 114.474 48.4803 114.516C48.2699 114.557 48.0518 114.538 47.8526 114.459C47.6539 114.38 47.4837 114.245 47.3632 114.071C47.2428 113.896 47.1776 113.691 47.176 113.48C47.0261 102.175 48.6838 90.9162 52.0886 80.1162C50.121 80.4179 48.2036 80.812 46.3362 81.1938C46.1405 81.2362 45.9368 81.2253 45.7469 81.1623C45.557 81.0994 45.3881 80.9868 45.2584 80.8367C45.1282 80.6896 45.0413 80.5103 45.0071 80.3182C44.9729 80.1262 44.9925 79.9285 45.0641 79.7467C49.981 67.9548 57.8507 57.5754 67.9423 49.5726C68.8793 39.6218 72.0626 30.0015 77.2604 21.4122C77.354 21.2615 77.4837 21.1357 77.6384 21.0459C77.7931 20.9561 77.9678 20.9049 78.1472 20.897C78.3267 20.8891 78.5055 20.9247 78.6677 21.0006C78.8299 21.0764 78.9706 21.1903 79.0775 21.3322C83.0629 26.7081 87.443 32.3549 92.5124 37.3922C101.642 34.424 112.189 33.876 123.9 35.7603C127.932 30.1186 132.655 24.9854 137.962 20.4762C138.091 20.3665 138.244 20.2881 138.409 20.2471C138.574 20.2062 138.747 20.2039 138.913 20.2404C139.08 20.2769 139.235 20.3513 139.367 20.4574C139.499 20.5636 139.603 20.6987 139.672 20.8519C141.032 23.8754 142.298 27.0098 143.514 30.0026C145.168 34.0853 146.879 38.3036 148.84 42.3186C168.729 95.2094 158.665 157.744 123.349 202.943C134.251 198.756 145.863 196.639 157.569 196.705C161.379 196.705 165.333 198.146 169.162 199.513C173.817 201.17 178.21 202.74 182.283 202.026C185.598 201.41 192.215 200.049 197.529 198.947L202.893 197.826C212.155 195.935 220.357 198.171 228.284 200.338C236.775 202.66 244.808 204.852 253.976 202.266C254.922 192.481 254.245 172.042 249.414 163.637C248.662 162.325 247.753 161.044 246.87 159.807C245.588 158.103 244.454 156.296 243.48 154.406C241.349 149.985 241.048 145.071 240.754 140.323C240.647 138.642 240.541 136.899 240.353 135.224C239.073 123.996 233.9 113.543 225.702 105.623C219.799 99.9325 212.317 95.5481 205.08 91.3052C193.932 84.7716 182.402 78.0101 176.669 66.3962C176.603 66.2693 176.564 66.131 176.554 65.9892C176.544 65.8474 176.562 65.705 176.608 65.5704C176.655 65.4357 176.728 65.3113 176.823 65.2046C176.919 65.098 177.035 65.011 177.165 64.949C177.295 64.8869 177.437 64.8508 177.581 64.843C177.726 64.8351 177.87 64.8556 178.007 64.9031C178.143 64.9507 178.268 65.0245 178.375 65.1201C178.482 65.2158 178.569 65.3314 178.63 65.4602C184.082 76.5015 194.822 82.7949 206.202 89.4763C213.552 93.7869 221.147 98.2391 227.231 104.102C235.79 112.37 241.191 123.281 242.527 135.002C242.721 136.726 242.828 138.5 242.934 140.206C243.229 144.96 243.511 149.443 245.441 153.501C246.363 155.284 247.436 156.988 248.649 158.593C249.558 159.874 250.498 161.198 251.306 162.596C256.727 172.042 257.077 194.069 256.056 203.239C256.034 203.446 255.951 203.643 255.816 203.804C255.681 203.965 255.501 204.083 255.298 204.144C245.215 207.223 236.298 204.76 227.676 202.438C220 200.338 212.054 198.171 203.313 199.975C201.972 200.246 200.086 200.64 197.961 201.09C192.629 202.204 185.993 203.602 182.647 204.169C177.997 204.988 173.116 203.245 168.391 201.564C164.738 200.258 160.965 198.91 157.525 198.885C144.707 198.828 132.022 201.436 120.303 206.539C120.164 206.572 120.019 206.579 119.877 206.558Z" fill="#333333"/>
<path d="M197.729 172.603C197.103 172.603 196.476 172.603 195.887 172.603C195.744 172.6 195.602 172.57 195.471 172.514C195.339 172.457 195.221 172.375 195.121 172.274C195.022 172.172 194.945 172.051 194.893 171.92C194.842 171.788 194.818 171.648 194.822 171.507C194.835 171.225 194.958 170.958 195.166 170.763C195.373 170.568 195.65 170.46 195.937 170.46C210.733 170.77 225.299 166.821 237.84 159.098C238.084 158.955 238.375 158.911 238.652 158.975C238.929 159.04 239.169 159.208 239.322 159.445C239.474 159.681 239.526 159.967 239.467 160.24C239.408 160.514 239.242 160.754 239.005 160.909C226.631 168.525 212.33 172.576 197.729 172.603Z" fill="#333333"/>
<path d="M28.1393 68.5453C27.8688 68.545 27.6079 68.446 27.4076 68.2673C27.2072 68.0886 27.0817 67.8431 27.0553 67.5785C26.6417 63.3726 26.2156 59.0251 24.3921 55.1948C22.9446 52.1158 20.0057 48.7351 15.9577 48.0023C15.7148 47.9881 15.4738 47.9531 15.2371 47.8976C14.9641 47.837 14.7255 47.6749 14.5713 47.4454C14.4172 47.2158 14.3594 46.9366 14.4099 46.666C14.4591 46.3972 14.6097 46.1565 14.8316 45.9921C15.0535 45.8277 15.3303 45.7517 15.6067 45.7793L16.1834 45.8594C18.0632 45.964 20.0622 44.0612 21.353 42.0352C23.7405 38.2973 25.0563 33.5742 25.2067 28.2599C25.1629 27.2438 25.1503 26.2339 25.1754 25.2178C25.1819 24.94 25.2979 24.6756 25.4989 24.4803C25.7 24.285 25.9704 24.1741 26.2532 24.1709C26.3941 24.166 26.5347 24.1887 26.6667 24.2375C26.7986 24.2864 26.9195 24.3605 27.0221 24.4556C27.1247 24.5507 27.2069 24.6649 27.2642 24.7915C27.3216 24.9181 27.3528 25.0546 27.356 25.1932C27.4062 26.2216 27.4187 27.2376 27.3937 28.2352C27.5003 30.4934 27.8 32.7387 28.2897 34.9474C28.9665 38.0264 29.8563 40.0955 31.166 41.7212C32.7639 43.6794 35.0636 44.7448 37.144 44.5108C37.3942 44.4869 37.6451 44.5488 37.8542 44.6859C38.0633 44.8229 38.2178 45.0268 38.2916 45.263C38.3653 45.4992 38.3538 45.7531 38.2588 45.9819C38.1639 46.2106 37.9914 46.4001 37.7707 46.5183C35.9505 47.4833 34.3571 48.8136 33.094 50.423C31.831 52.0324 30.9265 53.8847 30.4391 55.8599C29.8367 58.5244 29.505 61.241 29.449 63.9699C29.3801 65.2015 29.3111 66.39 29.2045 67.5908C29.1796 67.8565 29.0547 68.1035 28.8542 68.2835C28.6537 68.4634 28.392 68.5634 28.1205 68.5638L28.1393 68.5453ZM19.5357 46.9924C22.5638 48.6265 24.9647 51.1892 26.3722 54.2896C26.9532 55.5391 27.4249 56.8348 27.7821 58.163C27.919 57.201 28.1094 56.2472 28.3524 55.3057C29.2419 51.7592 31.2834 48.5943 34.1675 46.2904C32.3102 45.6833 30.6742 44.5552 29.4616 43.0452C27.9032 40.9608 26.8333 38.5635 26.3284 36.025C25.6739 38.5514 24.63 40.9645 23.2329 43.1806C22.2946 44.6983 21.0333 45.9986 19.5357 46.9924Z" fill="#333333"/>
<path d="M195.01 75.7995C194.76 75.7991 194.518 75.7146 194.324 75.5599C194.13 75.4052 193.996 75.1898 193.945 74.9497C193.704 73.7041 193.539 72.4457 193.45 71.181C193.142 67.9665 192.823 64.3272 190.567 61.8332C189.499 60.7867 188.257 59.9267 186.895 59.29C185.41 58.4053 183.827 57.6905 182.176 57.1593C181.913 57.0885 181.686 56.923 181.541 56.6955C181.395 56.468 181.342 56.1952 181.392 55.931C181.441 55.6669 181.59 55.4307 181.809 55.2693C182.027 55.1079 182.299 55.033 182.571 55.0594C185.234 55.3119 187.584 52.8179 188.875 50.4286C190.972 46.5823 191.845 42.206 191.382 37.8664C191.319 37.3429 191.244 36.8195 191.156 36.3084C191.106 36.0283 191.172 35.7402 191.338 35.5075C191.504 35.2748 191.758 35.1165 192.043 35.0676C192.328 35.0186 192.621 35.0829 192.858 35.2463C193.095 35.4097 193.256 35.6588 193.305 35.9389C193.406 36.4993 193.487 37.0535 193.55 37.62C193.663 38.5745 193.75 39.529 193.832 40.465C193.938 41.6474 194.045 42.8728 194.214 44.0551C194.659 47.1341 195.467 49.3941 196.796 51.1121C197.526 52.0923 198.472 52.8978 199.564 53.4682C200.656 54.0387 201.864 54.3595 203.1 54.4067C203.353 54.4074 203.599 54.4951 203.794 54.6546C203.989 54.8142 204.121 55.0356 204.168 55.2807C204.215 55.5258 204.173 55.7793 204.05 55.9974C203.927 56.2156 203.731 56.3847 203.494 56.4758C200.499 57.6273 198.162 60.6324 197.228 64.5119C196.333 67.8303 195.94 71.2602 196.063 74.691C196.074 74.951 195.99 75.2064 195.826 75.4101C195.661 75.6139 195.427 75.7522 195.166 75.7995H195.01ZM186.068 56.4204C186.694 56.7406 187.321 57.0792 187.948 57.4118C189.528 58.1671 190.966 59.1835 192.196 60.4169C193.464 61.8886 194.356 63.6367 194.797 65.5157C194.897 65.0353 195.016 64.5427 195.135 64.0316C195.797 60.897 197.52 58.0752 200.023 56.0262C198.046 55.3276 196.321 54.0752 195.06 52.4238C193.894 50.8544 193.063 49.0699 192.616 47.1772C192.154 48.6694 191.543 50.1132 190.793 51.4878C189.745 53.5575 188.102 55.2792 186.068 56.4388V56.4204Z" fill="#333333"/>
<path d="M89.5045 28.9989C89.2484 29.0006 88.9999 28.9135 88.8025 28.7531C88.6051 28.5926 88.4716 28.3689 88.4252 28.1214C88.3789 27.8738 88.4227 27.618 88.549 27.399C88.6753 27.1801 88.8761 27.0118 89.1161 26.9237C101.182 22.4563 114.33 21.6308 126.877 24.5529C127.158 24.619 127.402 24.7924 127.553 25.0349C127.705 25.2775 127.752 25.5692 127.685 25.8461C127.618 26.1229 127.441 26.3621 127.194 26.5111C126.948 26.66 126.651 26.7066 126.369 26.6404C114.25 23.8181 101.549 24.6158 89.8931 28.9312C89.7681 28.9738 89.6369 28.9967 89.5045 28.9989Z" fill="#333333"/>
<path d="M167.476 146.358C167.399 146.366 167.321 146.366 167.244 146.358C166.961 146.297 166.715 146.129 166.558 145.89C166.402 145.651 166.349 145.36 166.41 145.083C170.665 125.925 175.064 106.115 173.692 86.2249C172.175 64.241 163.089 45.4283 148.758 34.6026C148.645 34.5169 148.549 34.4101 148.478 34.2882C148.406 34.1663 148.36 34.0317 148.341 33.8922C148.323 33.7527 148.332 33.6109 148.369 33.475C148.406 33.3391 148.471 33.2117 148.558 33.1001C148.645 32.9885 148.754 32.8949 148.878 32.8246C149.002 32.7543 149.139 32.7087 149.281 32.6904C149.423 32.6721 149.567 32.6815 149.705 32.718C149.843 32.7544 149.973 32.8173 150.087 32.9031C164.913 44.1044 174.312 63.4835 175.872 86.0771C177.263 106.269 172.833 126.233 168.541 145.545C168.483 145.779 168.346 145.986 168.153 146.134C167.959 146.281 167.721 146.36 167.476 146.358Z" fill="#333333"/>
<path d="M142.831 199.901C142.613 199.902 142.399 199.839 142.217 199.72C142.036 199.6 141.895 199.43 141.814 199.231C141.732 199.031 141.713 198.813 141.759 198.603C141.805 198.393 141.915 198.202 142.073 198.054C153.446 187.228 158.309 172.123 161.868 157.411C161.949 157.15 162.127 156.929 162.368 156.793C162.608 156.657 162.893 156.616 163.163 156.679C163.433 156.742 163.668 156.904 163.821 157.131C163.974 157.359 164.033 157.635 163.986 157.904C160.352 172.929 155.37 188.38 143.589 199.587C143.388 199.785 143.116 199.898 142.831 199.901Z" fill="#333333"/>
<path d="M44.8139 205.634C44.5859 205.635 44.3634 205.565 44.1779 205.434C43.9925 205.304 43.8533 205.12 43.7799 204.908C38.4097 189.476 40.0202 173.841 42.2635 160.57C42.8901 156.839 43.6296 153.064 44.3377 149.412C46.3366 139.097 48.4044 128.426 48.5235 117.822C48.5199 117.679 48.5461 117.538 48.6006 117.406C48.6551 117.275 48.7367 117.155 48.8402 117.056C48.9437 116.956 49.0669 116.879 49.2021 116.829C49.3374 116.778 49.4818 116.756 49.6264 116.762C49.7693 116.763 49.9106 116.792 50.0422 116.846C50.1738 116.901 50.2931 116.981 50.3933 117.081C50.4934 117.181 50.5725 117.3 50.6258 117.43C50.6792 117.56 50.7058 117.7 50.7041 117.84C50.5851 128.641 48.4984 139.393 46.4807 149.812C45.7726 153.452 45.0457 157.202 44.4128 160.897C42.2446 173.607 40.6969 188.521 45.5094 203.19C50.4096 201.866 55.5354 202.235 60.5484 202.574L62.9673 202.74C68.607 203.097 75.0361 203.011 79.8423 199.661C79.9585 199.57 80.0926 199.503 80.2361 199.464C80.3796 199.426 80.5296 199.417 80.6769 199.437C80.8242 199.458 80.9657 199.508 81.0925 199.584C81.2194 199.66 81.3291 199.761 81.4147 199.881C81.5004 200.001 81.5601 200.136 81.5905 200.279C81.6209 200.422 81.6212 200.57 81.5913 200.713C81.5614 200.856 81.502 200.992 81.4167 201.112C81.3315 201.232 81.2222 201.333 81.0956 201.41C75.7379 205.105 68.8576 205.228 62.8232 204.846L60.3792 204.68C55.2472 204.31 49.9335 203.928 45.1335 205.48C45.0365 205.549 44.9285 205.601 44.8139 205.634Z" fill="#333333"/>
<path d="M59.0953 204.113C58.8355 204.112 58.5846 204.019 58.3882 203.852C58.1917 203.685 58.0624 203.454 58.0236 203.202C55.5803 187.417 55.4665 171.368 57.6854 155.551C57.7047 155.412 57.7518 155.277 57.824 155.156C57.8962 155.034 57.992 154.928 58.1061 154.843C58.2201 154.757 58.3501 154.695 58.4887 154.659C58.6272 154.623 58.7716 154.615 58.9135 154.634C59.0555 154.653 59.1921 154.699 59.3159 154.77C59.4396 154.841 59.548 154.935 59.6347 155.047C59.7214 155.159 59.7847 155.287 59.8212 155.423C59.8577 155.559 59.8665 155.701 59.8472 155.841C57.6542 171.455 57.7661 187.299 60.1793 202.882C60.2016 203.021 60.1957 203.164 60.1617 203.302C60.1278 203.44 60.0666 203.569 59.9817 203.684C59.8967 203.798 59.7896 203.895 59.6665 203.969C59.5435 204.042 59.4069 204.091 59.2645 204.113H59.0953Z" fill="#333333"/>
<path d="M90.3319 205.456C89.8118 205.456 89.2917 205.456 88.7716 205.388C87.6627 205.389 86.5972 204.965 85.8014 204.206C84.1784 202.401 85.626 199.797 86.1712 198.817C92.1805 187.998 91.4536 173.841 84.5732 163.551C84.0531 165.46 83.2886 167.615 82.543 169.709C82.4835 169.876 82.3824 170.026 82.2489 170.146C82.1154 170.265 81.9537 170.35 81.7785 170.392C81.6036 170.434 81.4209 170.434 81.2463 170.391C81.0716 170.348 80.91 170.264 80.7758 170.146C73.5372 163.606 68.1867 155.302 65.2668 146.074L62.7603 149.695C62.6474 149.859 62.4904 149.989 62.3068 150.071C62.1232 150.153 61.9202 150.183 61.7203 150.158C61.5203 150.133 61.3312 150.054 61.1741 149.93C61.017 149.806 60.8981 149.642 60.8304 149.455C56.6413 137.893 54.868 125.62 55.6168 113.369C55.6423 113.088 55.7768 112.827 55.9925 112.64C56.2082 112.453 56.4886 112.355 56.7759 112.366C56.9192 112.374 57.0594 112.411 57.1884 112.473C57.3173 112.535 57.4325 112.621 57.5274 112.727C57.6223 112.833 57.6951 112.956 57.7414 113.089C57.7878 113.223 57.8068 113.364 57.7974 113.505C57.111 124.75 58.5994 136.021 62.1838 146.721L64.7843 142.971C64.9036 142.802 65.0699 142.67 65.2633 142.59C65.4566 142.511 65.6689 142.488 65.8752 142.523C66.0815 142.559 66.2732 142.652 66.4275 142.791C66.5817 142.931 66.6922 143.11 66.7457 143.309C69.2077 152.472 74.1468 160.809 81.0391 167.436C81.8627 165.279 82.5059 163.059 82.9627 160.798C82.9938 160.59 83.0866 160.395 83.2294 160.238C83.3722 160.082 83.5588 159.97 83.7659 159.917C83.9731 159.863 84.1916 159.871 84.3942 159.939C84.5968 160.007 84.7747 160.133 84.9054 160.299C93.5779 171.341 94.8876 187.598 88.0887 199.84C87.5498 200.813 86.8981 202.167 87.462 202.777C87.9017 203.093 88.434 203.259 88.9784 203.251C94.3925 203.695 100.182 201.472 104.863 197.142C108.623 193.651 111.694 188.946 114.507 182.363C114.587 182.182 114.715 182.025 114.878 181.91C115.042 181.795 115.234 181.726 115.435 181.711C119.34 181.412 123.201 180.702 126.952 179.592C127.089 179.551 127.232 179.536 127.375 179.55C127.517 179.563 127.655 179.604 127.781 179.671C127.907 179.737 128.018 179.828 128.108 179.937C128.198 180.046 128.265 180.172 128.306 180.307C128.39 180.578 128.36 180.872 128.224 181.123C128.087 181.373 127.855 181.56 127.579 181.643C123.89 182.733 120.098 183.453 116.262 183.792C113.398 190.381 110.24 195.141 106.355 198.731C101.643 203.048 95.8964 205.456 90.3319 205.456Z" fill="#333333"/>
<path d="M33.6222 213.775H13.7456C13.4564 213.775 13.1792 213.662 12.9747 213.461C12.7702 213.26 12.6553 212.988 12.6553 212.703C12.6553 212.419 12.7702 212.147 12.9747 211.946C13.1792 211.745 13.4564 211.632 13.7456 211.632H33.6222C33.9114 211.632 34.1888 211.745 34.3933 211.946C34.5977 212.147 34.7125 212.419 34.7125 212.703C34.7125 212.988 34.5977 213.26 34.3933 213.461C34.1888 213.662 33.9114 213.775 33.6222 213.775Z" fill="#333333"/>
<path d="M210.739 213.529H48.937C48.6478 213.529 48.3706 213.416 48.1661 213.215C47.9616 213.014 47.8467 212.741 47.8467 212.457C47.8467 212.173 47.9616 211.9 48.1661 211.7C48.3706 211.499 48.6478 211.386 48.937 211.386H210.739C211.028 211.386 211.305 211.499 211.51 211.7C211.714 211.9 211.829 212.173 211.829 212.457C211.829 212.741 211.714 213.014 211.51 213.215C211.305 213.416 211.028 213.529 210.739 213.529Z" fill="#333333"/>
<path d="M289.788 213.775H226.379C226.09 213.775 225.813 213.662 225.608 213.461C225.404 213.26 225.289 212.988 225.289 212.703C225.289 212.419 225.404 212.147 225.608 211.946C225.813 211.745 226.09 211.632 226.379 211.632H289.788C290.077 211.632 290.354 211.745 290.559 211.946C290.763 212.147 290.878 212.419 290.878 212.703C290.878 212.988 290.763 213.26 290.559 213.461C290.354 213.662 290.077 213.775 289.788 213.775Z" fill="#333333"/>
<path d="M103.404 107.495C103.122 107.495 102.851 107.388 102.648 107.196C102.445 107.005 102.325 106.743 102.314 106.466L101.831 95.1542C101.825 95.0134 101.848 94.8729 101.897 94.7407C101.946 94.6085 102.022 94.4871 102.119 94.3836C102.216 94.2801 102.333 94.1964 102.463 94.1374C102.594 94.0784 102.734 94.0451 102.877 94.0396C103.021 94.0321 103.165 94.053 103.3 94.1009C103.435 94.1489 103.559 94.223 103.665 94.3188C103.771 94.4147 103.856 94.5303 103.915 94.659C103.975 94.7876 104.008 94.9267 104.012 95.0679L104.494 106.38C104.5 106.521 104.478 106.661 104.428 106.794C104.379 106.926 104.303 107.047 104.206 107.151C104.109 107.254 103.992 107.338 103.862 107.397C103.732 107.456 103.591 107.489 103.448 107.495H103.404Z" fill="#333333"/>
<path d="M102.513 95.6159C100.976 94.7844 99.593 93.7039 98.4217 92.4199C97.9133 91.9137 97.5239 91.3042 97.2812 90.6341C97.1642 90.2988 97.1373 89.9395 97.2032 89.591C97.2691 89.2425 97.4253 88.9167 97.6571 88.6451C98.2605 88.1497 99.0344 87.9006 99.8191 87.9492C101.675 87.8938 103.533 87.9432 105.383 88.097C106.05 88.1076 106.711 88.2262 107.339 88.448C107.653 88.5623 107.935 88.7471 108.164 88.9876C108.392 89.2282 108.56 89.5178 108.654 89.8336C108.855 90.7265 108.247 91.5886 107.633 92.2967C107.019 93.0049 106.505 93.5284 105.897 94.0826C104.932 94.9693 103.541 96.1763 102.513 95.6159Z" fill="#333333"/>
<path d="M77.1855 45.9889C77.3555 43.3322 77.9695 40.7212 79.0029 38.2606C79.2018 37.6009 79.6503 37.0412 80.2561 36.6965C81.2399 36.2654 82.3301 36.9982 83.1071 37.7372C84.2066 38.7867 85.2012 39.9374 86.0774 41.1733C86.328 41.5305 86.5849 41.9923 86.3907 42.4049C86.2404 42.6333 86.0213 42.8098 85.764 42.9099L78.9276 46.6047C78.6517 46.7956 78.3182 46.8889 77.9814 46.8694C77.6681 46.7832 77.3986 46.3707 77.1855 45.9889Z" fill="#333333"/>
<path d="M129.998 39.2211C131.233 37.5589 132.67 36.0513 134.278 34.732C135.017 34.1162 135.982 33.5004 136.928 33.796C137.3 33.9563 137.63 34.1976 137.892 34.5017C138.155 34.8058 138.344 35.1646 138.445 35.551C139.138 37.3424 139.464 39.2512 139.403 41.1671C139.431 41.4158 139.392 41.6672 139.29 41.8963C139.187 42.1254 139.026 42.3241 138.821 42.4726C138.486 42.5961 138.12 42.6155 137.774 42.528C135.647 42.1862 133.551 41.6755 131.508 41.0008C131.025 40.8711 130.575 40.6446 130.186 40.3357C130.021 40.2049 129.911 40.0191 129.876 39.8136C129.841 39.6081 129.885 39.3973 129.998 39.2211Z" fill="#333333"/>
<path d="M180.453 168.169C180.364 168.178 180.273 168.178 180.184 168.169C179.903 168.098 179.663 167.921 179.515 167.676C179.367 167.432 179.324 167.14 179.394 166.864C185.429 143.46 188.999 119.509 190.047 95.3881C190.053 95.2474 190.087 95.1093 190.148 94.9816C190.208 94.8539 190.294 94.7392 190.399 94.644C190.505 94.5488 190.629 94.4749 190.763 94.4267C190.898 94.3784 191.041 94.3567 191.184 94.3628C191.327 94.3689 191.468 94.4026 191.598 94.462C191.728 94.5215 191.845 94.6055 191.941 94.7093C192.038 94.8131 192.113 94.9346 192.163 95.0669C192.212 95.1992 192.234 95.3398 192.228 95.4805C191.169 119.749 187.578 143.846 181.512 167.393C181.445 167.618 181.306 167.815 181.115 167.955C180.924 168.095 180.692 168.171 180.453 168.169Z" fill="white"/>
<path d="M171.236 193.331C171.056 193.331 170.879 193.288 170.72 193.205C170.562 193.122 170.427 193.001 170.327 192.854C170.227 192.707 170.166 192.538 170.148 192.363C170.131 192.187 170.158 192.009 170.227 191.846L175.779 178.681C175.831 178.547 175.91 178.425 176.011 178.321C176.112 178.218 176.234 178.136 176.368 178.079C176.502 178.023 176.646 177.993 176.792 177.992C176.938 177.992 177.083 178.02 177.217 178.075C177.352 178.13 177.474 178.212 177.576 178.314C177.678 178.416 177.758 178.538 177.812 178.671C177.865 178.805 177.891 178.947 177.887 179.091C177.884 179.234 177.851 179.375 177.791 179.506L172.239 192.666C172.158 192.862 172.019 193.03 171.841 193.148C171.662 193.267 171.452 193.33 171.236 193.331Z" fill="white"/>
<path d="M198.4 158.63C198.312 158.639 198.224 158.639 198.137 158.63C197.998 158.597 197.867 158.536 197.751 158.452C197.636 158.369 197.539 158.264 197.465 158.143C197.391 158.022 197.342 157.888 197.321 157.749C197.299 157.61 197.306 157.468 197.341 157.331C201.778 139.75 204.527 121.799 205.55 103.714C205.554 103.572 205.587 103.433 205.647 103.304C205.708 103.175 205.794 103.06 205.902 102.966C206.009 102.871 206.135 102.799 206.272 102.754C206.408 102.709 206.553 102.692 206.696 102.704C206.84 102.712 206.98 102.747 207.109 102.808C207.239 102.87 207.354 102.955 207.45 103.061C207.545 103.166 207.619 103.289 207.666 103.422C207.713 103.555 207.733 103.696 207.724 103.837C206.694 122.055 203.927 140.138 199.459 157.848C199.393 158.074 199.254 158.273 199.063 158.414C198.872 158.555 198.639 158.631 198.4 158.63Z" fill="white"/>
<path d="M214.53 161.315C214.451 161.324 214.371 161.324 214.292 161.315C214.011 161.254 213.765 161.085 213.61 160.846C213.455 160.607 213.403 160.317 213.465 160.041C217.064 144.206 218.99 128.048 219.211 111.824C219.216 111.543 219.333 111.275 219.537 111.078C219.741 110.881 220.015 110.771 220.301 110.771C220.444 110.772 220.585 110.802 220.717 110.857C220.848 110.913 220.967 110.993 221.066 111.094C221.166 111.194 221.244 111.313 221.297 111.444C221.349 111.575 221.375 111.714 221.373 111.855C221.15 128.223 219.208 144.526 215.576 160.503C215.518 160.733 215.384 160.937 215.194 161.085C215.005 161.232 214.771 161.313 214.53 161.315Z" fill="white"/>
<path d="M227.181 156.82C227.083 156.82 226.986 156.807 226.892 156.783C226.614 156.707 226.377 156.525 226.234 156.279C226.091 156.032 226.053 155.74 226.128 155.465C228.002 148.776 229.017 141.883 229.148 134.947C229.153 134.666 229.27 134.398 229.474 134.201C229.678 134.004 229.953 133.894 230.239 133.894C230.528 133.9 230.804 134.019 231.005 134.225C231.205 134.43 231.315 134.705 231.31 134.99C231.178 142.104 230.138 149.173 228.215 156.032C228.152 156.255 228.018 156.453 227.831 156.595C227.645 156.737 227.417 156.816 227.181 156.82Z" fill="white"/>
<path d="M188.017 195.424C187.863 195.424 187.711 195.39 187.572 195.326C187.441 195.268 187.323 195.186 187.225 195.084C187.126 194.981 187.05 194.861 186.999 194.729C186.948 194.598 186.925 194.457 186.929 194.317C186.934 194.176 186.967 194.037 187.027 193.909L193.437 179.888C193.556 179.628 193.775 179.425 194.046 179.324C194.317 179.223 194.617 179.232 194.882 179.349C195.146 179.466 195.352 179.681 195.455 179.947C195.558 180.213 195.549 180.509 195.43 180.768L189.013 194.79C188.927 194.978 188.787 195.139 188.61 195.251C188.433 195.364 188.228 195.424 188.017 195.424Z" fill="white"/>
<path d="M203.745 192.401C203.544 192.399 203.347 192.344 203.175 192.241C202.928 192.093 202.751 191.855 202.683 191.579C202.615 191.303 202.661 191.011 202.811 190.769C205.404 186.617 207.614 182.246 209.416 177.708C209.463 177.571 209.538 177.444 209.636 177.336C209.734 177.228 209.854 177.141 209.987 177.08C210.121 177.018 210.266 176.984 210.413 176.979C210.56 176.975 210.707 176.999 210.844 177.052C210.982 177.104 211.107 177.183 211.212 177.285C211.317 177.386 211.401 177.507 211.457 177.641C211.513 177.775 211.541 177.919 211.539 178.064C211.538 178.208 211.506 178.351 211.446 178.484C209.598 183.141 207.331 187.628 204.672 191.89C204.575 192.045 204.438 192.174 204.276 192.263C204.114 192.352 203.931 192.4 203.745 192.401Z" fill="white"/>
<path d="M219.01 193.17C218.785 193.167 218.567 193.096 218.384 192.967C218.268 192.885 218.169 192.781 218.094 192.661C218.019 192.541 217.969 192.408 217.946 192.269C217.923 192.13 217.929 191.988 217.962 191.851C217.995 191.714 218.055 191.585 218.139 191.471C222.659 185.331 226.226 178.566 228.723 171.396C228.826 171.141 229.026 170.934 229.279 170.82C229.533 170.705 229.823 170.69 230.087 170.778C230.352 170.867 230.572 171.052 230.701 171.295C230.831 171.538 230.861 171.821 230.785 172.086C228.22 179.458 224.554 186.415 219.906 192.727C219.804 192.866 219.67 192.98 219.514 193.057C219.358 193.134 219.185 193.173 219.01 193.17Z" fill="white"/>
<path d="M232.834 196.958C232.687 196.958 232.542 196.928 232.407 196.871C232.272 196.814 232.151 196.73 232.051 196.625C231.846 196.424 231.731 196.152 231.731 195.868C231.731 195.584 231.846 195.311 232.051 195.11C237.245 190.178 240.903 183.894 242.597 176.994C242.663 176.717 242.839 176.477 243.085 176.328C243.331 176.178 243.628 176.131 243.909 176.196C244.191 176.261 244.435 176.434 244.587 176.676C244.739 176.918 244.787 177.209 244.721 177.486C242.928 184.788 239.057 191.437 233.561 196.656C233.365 196.841 233.106 196.949 232.834 196.958Z" fill="white"/>
</svg>
